<svg width="34" height="12" viewBox="0 0 34 12" fill="none" xmlns="http://www.w3.org/2000/svg">
<path d="M33.6509 5.39494L25.5175 0.699097C25.1835 0.506337 24.7566 0.620765 24.5638 0.954621C24.3709 1.28855 24.4854 1.71547 24.8193 1.9083L30.6987 5.30271H0.698152C0.312563 5.30271 0 5.61534 0 6.00086C0 6.38631 0.312563 6.69902 0.698152 6.69902H30.694L24.8193 10.0908C24.4854 10.2837 24.3709 10.7106 24.5638 11.0445C24.6931 11.2685 24.9277 11.3937 25.169 11.3937C25.2874 11.3937 25.4075 11.3634 25.5175 11.3L33.6509 6.60414C33.8669 6.47945 34 6.24892 34 5.99954C34 5.75016 33.8669 5.51963 33.6509 5.39494Z" fill="white"/>
</svg>
