<svg width="45" height="31" viewBox="0 0 45 31" fill="none"
    xmlns="http://www.w3.org/2000/svg">
    <path fill-rule="evenodd" clip-rule="evenodd" d="M7.70946 11.3013C7.47787 12.0386 6.82227 12.6368 6.22025 12.9801C5.44032 13.4249 4.47951 13.5903 3.33984 13.5098C3.46166 14.0826 4.23087 16.015 4.48205 16.7444L6.22092 21.4956C6.40677 22.0324 6.58303 22.5426 6.80047 23.0794C7.0962 23.8095 7.71579 25.7952 7.99789 26.2935L22.5049 26.2913L22.4997 21.8303C21.02 22.3248 19.768 23.2166 18.8085 22.966C17.3466 22.584 18.1589 20.939 18.386 19.7878C18.4835 19.2937 17.683 18.9141 16.8645 18.3063C16.2249 17.8312 15.5009 17.1396 16.1731 16.4615C16.6923 15.9377 18.0004 15.9343 18.9062 15.8313C19.9552 15.7122 19.9358 15.8196 20.1779 15.4456C21.0397 14.1143 21.1562 13.1969 22.5176 13.0786L22.5091 7.19311C21.7787 7.14987 21.1998 7.05638 20.6276 6.79623C19.5158 6.29075 19.84 6.16422 19.3354 5.96631L17.3844 8.67186C17.1422 8.99666 16.9316 9.30279 16.7036 9.60875L14.0621 13.2805C13.8275 13.2366 13.5393 13.134 13.2842 13.0579L7.70946 11.3013Z" fill="#FFBB7E"/>
    <path fill-rule="evenodd" clip-rule="evenodd" d="M22.5094 7.19303L22.518 13.0786C23.6745 13.1564 23.8239 13.8328 24.5081 14.9181C25.0185 15.7278 24.8432 15.6913 25.5657 15.7697C26.767 15.9002 28.3854 15.9282 28.9011 16.5417C29.5781 17.3471 28.4507 17.9963 28.211 18.2274C27.8497 18.5756 26.6498 19.3501 26.5924 19.5009C26.6662 20.5999 27.7175 22.3871 26.33 22.9328C25.3342 23.3244 23.3793 22.0827 22.5 21.8302L22.5052 26.2912L37.0011 26.289C37.0129 26.2739 37.0255 26.2305 37.0294 26.2405L41.121 15.1096C41.2602 14.7479 41.5643 13.758 41.747 13.5199C40.6275 13.5406 39.6128 13.4761 38.8204 13.0169C38.3361 12.7364 37.3817 12.0095 37.318 11.3012C36.2285 11.6132 35.1947 11.9852 34.1111 12.2991L30.9369 13.2805L25.6636 5.94727C25.1588 6.20015 24.8152 7.0575 22.5094 7.19303Z" fill="#FFA048"/>
    <path fill-rule="evenodd" clip-rule="evenodd" d="M22.5049 30.528L22.5076 26.2913L8.00065 26.2935C8.00065 26.9949 7.83717 29.6458 8.20885 30.0778C8.65268 30.5937 9.10553 30.5285 10.1099 30.528H22.5049Z" fill="#FFAB60"/>
    <path fill-rule="evenodd" clip-rule="evenodd" d="M22.5039 30.528H34.8054C37.0972 30.5285 37.0025 30.2643 37.0025 28.3367C37.0025 27.6542 37.0025 26.9716 37.0025 26.2891L22.5066 26.2912L22.5039 30.528Z" fill="#FF9534"/>
    <path fill-rule="evenodd" clip-rule="evenodd" d="M37.3175 11.3014C37.3813 12.0097 38.3357 12.7366 38.82 13.0172C39.6123 13.4763 40.6271 13.5408 41.7466 13.5201C43.7978 13.2296 44.9683 11.835 44.9985 10.4108V10.299C44.9784 9.33423 44.4327 8.36878 43.2793 7.73607C41.9117 6.98587 39.8993 7.02354 38.6553 7.82553C38.0962 8.18596 37.6286 8.62605 37.3631 9.18953C37.1438 9.65479 36.8097 10.8079 37.3175 11.3014Z" fill="#FF9F00"/>
    <path fill-rule="evenodd" clip-rule="evenodd" d="M37.3175 11.3014C37.3813 12.0097 38.3357 12.7366 38.82 13.0172C39.6123 13.4763 40.6271 13.5408 41.7466 13.5201C43.7978 13.2296 44.9683 11.835 44.9985 10.4108V10.299C44.9784 9.33423 44.4327 8.36878 43.2793 7.73607C41.9117 6.98587 39.8993 7.02354 38.6553 7.82553C38.0962 8.18596 37.6286 8.62605 37.3631 9.18953C37.1438 9.65479 36.8097 10.8079 37.3175 11.3014Z" fill="#FF9534"/>
    <path fill-rule="evenodd" clip-rule="evenodd" d="M3.33973 13.51C4.4794 13.5905 5.44022 13.4251 6.22014 12.9803C6.82216 12.6369 7.47776 12.0387 7.70935 11.3015C8.34344 10.5067 7.77693 8.74991 6.34313 7.82556C4.00676 6.31934 0.418666 7.6358 0 9.87371V10.7472C0.0268098 10.8967 0.066825 11.0486 0.122637 11.2028C0.445675 12.0952 1.16463 12.8419 2.16501 13.2359L3.33973 13.51Z" fill="#FDBE00"/>
    <path fill-rule="evenodd" clip-rule="evenodd" d="M3.33973 13.51C4.4794 13.5905 5.44022 13.4251 6.22014 12.9803C6.82216 12.6369 7.47776 12.0387 7.70935 11.3015C8.34344 10.5067 7.77693 8.74991 6.34313 7.82556C4.00676 6.31934 0.418666 7.6358 0 9.87371V10.7472C0.0268098 10.8967 0.066825 11.0486 0.122637 11.2028C0.445675 12.0952 1.16463 12.8419 2.16501 13.2359L3.33973 13.51Z" fill="#FFAB60"/>
    <path fill-rule="evenodd" clip-rule="evenodd" d="M22.4997 21.8303L22.5176 13.0786C21.1561 13.1968 21.0397 14.1142 20.1779 15.4456C19.9358 15.8196 19.9552 15.7121 18.9062 15.8313C18.0003 15.9342 16.6922 15.9376 16.173 16.4615C15.5009 17.1396 16.2249 17.8312 16.8645 18.3063C17.683 18.9141 18.4835 19.2937 18.386 19.7878C18.1589 20.939 17.3466 22.584 18.8085 22.9659C19.768 23.2166 21.02 22.3248 22.4997 21.8303Z" fill="#FF9F00"/>
    <path fill-rule="evenodd" clip-rule="evenodd" d="M22.4997 21.8303L22.5176 13.0786C21.1561 13.1968 21.0397 14.1142 20.1779 15.4456C19.9358 15.8196 19.9552 15.7121 18.9062 15.8313C18.0003 15.9342 16.6922 15.9376 16.173 16.4615C15.5009 17.1396 16.2249 17.8312 16.8645 18.3063C17.683 18.9141 18.4835 19.2937 18.386 19.7878C18.1589 20.939 17.3466 22.584 18.8085 22.9659C19.768 23.2166 21.02 22.3248 22.4997 21.8303Z" fill="#FF9534"/>
    <path fill-rule="evenodd" clip-rule="evenodd" d="M22.5 21.8303C23.3793 22.0828 25.3342 23.3245 26.33 22.9328C27.7175 22.3871 26.6662 20.6 26.5924 19.5009C26.6498 19.3502 27.8497 18.5757 28.211 18.2275C28.4507 17.9964 29.5781 17.3471 28.9011 16.5418C28.3854 15.9283 26.767 15.9002 25.5657 15.7698C24.8432 15.6913 25.0185 15.7279 24.5081 14.9182C23.8239 13.8328 23.6745 13.1564 22.518 13.0786L22.5 21.8303Z" fill="#FF7816"/>
    <path fill-rule="evenodd" clip-rule="evenodd" d="M19.3372 5.96622C19.8419 6.16413 19.5177 6.29066 20.6295 6.79614C21.2017 7.0563 21.7805 7.14978 22.5109 7.19303L22.5068 0.8396C20.8487 0.8396 19.5953 1.60866 19.013 2.48738C18.6816 2.98751 18.4731 3.57731 18.5487 4.37193C18.6014 4.9269 19.0178 5.61729 19.3372 5.96622Z" fill="#FDBE00"/>
    <path fill-rule="evenodd" clip-rule="evenodd" d="M19.3372 5.96622C19.8419 6.16413 19.5177 6.29066 20.6295 6.79614C21.2017 7.0563 21.7805 7.14978 22.5109 7.19303L22.5068 0.8396C20.8487 0.8396 19.5953 1.60866 19.013 2.48738C18.6816 2.98751 18.4731 3.57731 18.5487 4.37193C18.6014 4.9269 19.0178 5.61729 19.3372 5.96622Z" fill="#FFAB60"/>
    <path fill-rule="evenodd" clip-rule="evenodd" d="M22.508 7.19303C24.8139 7.0575 25.1574 6.20014 25.6623 5.94726C27.175 4.28568 26.3832 2.18704 24.694 1.33562C24.0949 1.03364 23.4784 0.8396 22.5039 0.8396L22.508 7.19303Z" fill="#FF9F00"/>
    <path fill-rule="evenodd" clip-rule="evenodd" d="M22.508 7.19303C24.8139 7.0575 25.1574 6.20014 25.6623 5.94726C27.175 4.28568 26.3832 2.18704 24.694 1.33562C24.0949 1.03364 23.4784 0.8396 22.5039 0.8396L22.508 7.19303Z" fill="#FF9534"/>
</svg>
