<svg width="24" height="24" viewBox="0 0 24 24" fill="none"
  xmlns="http://www.w3.org/2000/svg">
  <path d="M15.2854 8.01846L15.4599 8.37203L15.85 8.42874L23.196 9.49628L17.8801 14.6778L17.5977 14.953L17.6643 15.3417L18.9193 22.6581L12.349 19.2037L12 19.0202L11.651 19.2037L5.0804 22.6582L6.33504 15.3416L6.40168 14.953L6.11935 14.6778L0.803915 9.49629L8.14982 8.42869L8.53999 8.37198L8.71449 8.01843L12 1.36176L15.2854 8.01846ZM23.2642 9.42988L23.2641 9.42992L23.2642 9.42988ZM0.70975 9.50997L0.709875 9.50995L0.70975 9.50997ZM12.042 1.2766C12.042 1.27662 12.042 1.27665 12.042 1.27667L12.042 1.2766Z" stroke="#323232" stroke-width="1.5"/>
</svg>
