<svg width="24" height="24" viewBox="0 0 24 24" fill="none"
  xmlns="http://www.w3.org/2000/svg">
  <path d="M23.9655 9.2463C23.8829 8.99167 23.6628 8.80619 23.398 8.76775L15.9579 7.68653L12.6305 0.944656C12.5121 0.704609 12.2677 0.552734 12 0.552734C11.7324 0.552734 11.488 0.704609 11.3695 0.944656L8.04195 7.68649L0.602009 8.76775C0.337213 8.80619 0.117088 8.99167 0.0344479 9.2462C-0.0482863 9.50083 0.0207136 9.78025 0.212338 9.967L5.59583 15.2149L4.32514 22.625C4.27991 22.8888 4.38838 23.1553 4.60489 23.3127C4.82141 23.47 5.10838 23.4908 5.34538 23.3662L12 19.8675L18.6544 23.3661C18.7573 23.4202 18.8696 23.4469 18.9815 23.4469C19.1273 23.4469 19.2724 23.4017 19.3949 23.3127C19.6114 23.1553 19.7198 22.8887 19.6746 22.625L18.4036 15.2149L23.7876 9.967C23.9793 9.7802 24.0483 9.50078 23.9655 9.2463Z" fill="url(#paint0_radial_1577_7906)"/>
  <defs>
    <radialGradient id="paint0_radial_1577_7906" cx="0" cy="0" r="1" gradientUnits="userSpaceOnUse" gradientTransform="translate(12 11.9999) rotate(90) scale(8.50014 8.91068)">
      <stop stop-color="#F4F4F4"/>
      <stop offset="0.682292" stop-color="#B3B3B3"/>
      <stop offset="0.989583" stop-color="#999898"/>
    </radialGradient>
  </defs>
</svg>
