<svg class="header__burger header__burger--lessons" viewBox="0 0 23 23">
    <g clip-path="url(#clip0)">
        <path class="burger__path"
              d="M21.5257 4.1284H1.47438C0.659902 4.1284 0 3.4685 0 2.65407C0 1.83963 0.659902 1.17969 1.47438 1.17969H21.5257C22.3401 1.17969 23 1.83959 23 2.65407C23 3.46855 22.3401 4.1284 21.5257 4.1284Z"/>
        <path class="burger__path"
              d="M13.2692 12.9741H1.47438C0.659902 12.9741 0 12.3142 0 11.4998C0 10.6853 0.659902 10.0254 1.47438 10.0254H13.2692C14.0837 10.0254 14.7436 10.6853 14.7436 11.4998C14.7436 12.3142 14.0837 12.9741 13.2692 12.9741Z"/>
        <path class="burger__path"
              d="M21.5248 12.9741H19.1658C18.3514 12.9741 17.6914 12.3142 17.6914 11.4998C17.6914 10.6853 18.3513 10.0254 19.1658 10.0254H21.5248C22.3392 10.0254 22.9991 10.6853 22.9991 11.4998C22.9991 12.3142 22.3392 12.9741 21.5248 12.9741Z"/>
        <path class="burger__path"
              d="M21.5257 21.8208H1.47438C0.659902 21.8208 0 21.1609 0 20.3465C0 19.532 0.659902 18.8721 1.47438 18.8721H21.5257C22.3401 18.8721 23 19.532 23 20.3465C23 21.1609 22.3401 21.8208 21.5257 21.8208Z"/>
    </g>
    <defs>
        <clipPath id="clip0">
            <rect width="23" height="23" fill="white"/>
        </clipPath>
    </defs>
</svg>
