<svg width="149" height="26" viewBox="0 0 149 26" fill="none" xmlns="http://www.w3.org/2000/svg">
<path d="M15 14.4C14.68 14.9867 14.2867 15.52 13.82 16C13.3533 16.4667 12.8333 16.8733 12.26 17.22C11.7 17.5533 11.0867 17.8133 10.42 18C9.76667 18.1867 9.08667 18.28 8.38 18.28C7.34 18.28 6.36 18.08 5.44 17.68C4.52 17.28 3.71333 16.74 3.02 16.06C2.34 15.3667 1.8 14.56 1.4 13.64C1 12.72 0.8 11.74 0.8 10.7C0.8 9.66 1 8.68 1.4 7.76C1.8 6.84 2.34 6.04 3.02 5.36C3.71333 4.66667 4.52 4.12 5.44 3.72C6.36 3.32 7.34 3.12 8.38 3.12C9.08667 3.12 9.76667 3.21333 10.42 3.4C11.0867 3.58667 11.7 3.85333 12.26 4.2C12.8333 4.53333 13.3533 4.94 13.82 5.42C14.2867 5.88667 14.68 6.40667 15 6.98L12.38 8.04C12.1667 7.72 11.9133 7.42 11.62 7.14C11.34 6.86 11.0267 6.61333 10.68 6.4C10.3333 6.18667 9.96667 6.02 9.58 5.9C9.19333 5.78 8.79333 5.72 8.38 5.72C7.71333 5.72 7.08667 5.86 6.5 6.14C5.92667 6.40667 5.42667 6.76667 5 7.22C4.57333 7.67333 4.23333 8.20667 3.98 8.82C3.72667 9.42 3.6 10.0467 3.6 10.7C3.6 11.3667 3.72667 12 3.98 12.6C4.23333 13.2 4.57333 13.7267 5 14.18C5.42667 14.6333 5.92667 15 6.5 15.28C7.08667 15.5467 7.71333 15.68 8.38 15.68C8.79333 15.68 9.19333 15.62 9.58 15.5C9.96667 15.38 10.3333 15.2133 10.68 15C11.0267 14.7867 11.34 14.54 11.62 14.26C11.9133 13.9667 12.1667 13.66 12.38 13.34L15 14.4ZM29.5664 3.36V18H26.7864V12.18H19.5464V18H16.7664V3.36H19.5464V9.68H26.7864V3.36H29.5664ZM35.5625 18H32.7625V3.38H35.5625V18ZM52.1594 14.4C51.8394 14.9867 51.446 15.52 50.9794 16C50.5127 16.4667 49.9927 16.8733 49.4194 17.22C48.8594 17.5533 48.246 17.8133 47.5794 18C46.926 18.1867 46.246 18.28 45.5394 18.28C44.4994 18.28 43.5194 18.08 42.5994 17.68C41.6794 17.28 40.8727 16.74 40.1794 16.06C39.4994 15.3667 38.9594 14.56 38.5594 13.64C38.1594 12.72 37.9594 11.74 37.9594 10.7C37.9594 9.66 38.1594 8.68 38.5594 7.76C38.9594 6.84 39.4994 6.04 40.1794 5.36C40.8727 4.66667 41.6794 4.12 42.5994 3.72C43.5194 3.32 44.4994 3.12 45.5394 3.12C46.246 3.12 46.926 3.21333 47.5794 3.4C48.246 3.58667 48.8594 3.85333 49.4194 4.2C49.9927 4.53333 50.5127 4.94 50.9794 5.42C51.446 5.88667 51.8394 6.40667 52.1594 6.98L49.5394 8.04C49.326 7.72 49.0727 7.42 48.7794 7.14C48.4994 6.86 48.186 6.61333 47.8394 6.4C47.4927 6.18667 47.126 6.02 46.7394 5.9C46.3527 5.78 45.9527 5.72 45.5394 5.72C44.8727 5.72 44.246 5.86 43.6594 6.14C43.086 6.40667 42.586 6.76667 42.1594 7.22C41.7327 7.67333 41.3927 8.20667 41.1394 8.82C40.886 9.42 40.7594 10.0467 40.7594 10.7C40.7594 11.3667 40.886 12 41.1394 12.6C41.3927 13.2 41.7327 13.7267 42.1594 14.18C42.586 14.6333 43.086 15 43.6594 15.28C44.246 15.5467 44.8727 15.68 45.5394 15.68C45.9527 15.68 46.3527 15.62 46.7394 15.5C47.126 15.38 47.4927 15.2133 47.8394 15C48.186 14.7867 48.4994 14.54 48.7794 14.26C49.0727 13.9667 49.326 13.66 49.5394 13.34L52.1594 14.4ZM52.4458 18L59.9258 3.38H60.2058L67.6858 18H64.6458L63.5058 15.7H56.6058L55.4858 18H52.4458ZM57.9658 13.26H62.1458L60.0658 8.84L57.9658 13.26ZM83.2141 10C83.2007 10.28 83.1941 10.54 83.1941 10.78C83.1807 10.9933 83.1741 11.2067 83.1741 11.42C83.1741 11.62 83.1674 11.7733 83.1541 11.88C83.0741 12.8 82.8207 13.6533 82.3941 14.44C81.9807 15.2267 81.4407 15.9067 80.7741 16.48C80.1207 17.04 79.3607 17.48 78.4941 17.8C77.6407 18.12 76.7407 18.28 75.7941 18.28C74.7541 18.28 73.7741 18.08 72.8541 17.68C71.9341 17.28 71.1274 16.74 70.4341 16.06C69.7541 15.3667 69.2141 14.56 68.8141 13.64C68.4141 12.72 68.2141 11.74 68.2141 10.7C68.2141 9.66 68.4141 8.68 68.8141 7.76C69.2141 6.82667 69.7541 6.02 70.4341 5.34C71.1274 4.64667 71.9341 4.1 72.8541 3.7C73.7741 3.3 74.7541 3.1 75.7941 3.1C77.1141 3.1 78.3207 3.40667 79.4141 4.02C80.5207 4.63333 81.4141 5.45333 82.0941 6.48L79.6941 7.94C79.2674 7.31333 78.7074 6.78667 78.0141 6.36C77.3341 5.93333 76.5941 5.72 75.7941 5.72C75.1274 5.72 74.5007 5.86 73.9141 6.14C73.3407 6.40667 72.8341 6.76667 72.3941 7.22C71.9674 7.67333 71.6274 8.20667 71.3741 8.82C71.1207 9.42 70.9941 10.0467 70.9941 10.7C70.9941 11.3667 71.1207 12 71.3741 12.6C71.6274 13.2 71.9674 13.7267 72.3941 14.18C72.8341 14.6333 73.3407 15 73.9141 15.28C74.5007 15.5467 75.1274 15.68 75.7941 15.68C76.3007 15.68 76.7874 15.6067 77.2541 15.46C77.7207 15.3 78.1474 15.08 78.5341 14.8C78.9207 14.52 79.2541 14.1867 79.5341 13.8C79.8274 13.4133 80.0407 12.9867 80.1741 12.52H74.7741V10H83.2141ZM83.0716 18L90.5516 3.38H90.8316L98.3116 18H95.2716L94.1316 15.7H87.2316L86.1116 18H83.0716ZM88.5916 13.26H92.7716L90.6916 8.84L88.5916 13.26Z" fill="#323232"/>
<path d="M107.72 18.24C106.573 18.24 105.611 17.9867 104.832 17.48C104.053 16.968 103.467 16.2613 103.072 15.36C102.677 14.4587 102.48 13.4187 102.48 12.24C102.48 11.0613 102.677 10.0213 103.072 9.12C103.467 8.21867 104.053 7.51467 104.832 7.008C105.611 6.496 106.573 6.24 107.72 6.24C108.867 6.24 109.827 6.496 110.6 7.008C111.379 7.51467 111.965 8.21867 112.36 9.12C112.755 10.0213 112.952 11.0613 112.952 12.24C112.952 13.4187 112.755 14.4587 112.36 15.36C111.965 16.2613 111.379 16.968 110.6 17.48C109.827 17.9867 108.867 18.24 107.72 18.24ZM107.72 17.336C108.664 17.3413 109.451 17.128 110.08 16.696C110.709 16.2587 111.181 15.656 111.496 14.888C111.811 14.12 111.968 13.2373 111.968 12.24C111.968 11.2427 111.811 10.36 111.496 9.592C111.181 8.824 110.709 8.224 110.08 7.792C109.451 7.36 108.664 7.144 107.72 7.144C106.776 7.13867 105.989 7.352 105.36 7.784C104.736 8.216 104.267 8.81867 103.952 9.592C103.637 10.36 103.475 11.2427 103.464 12.24C103.453 13.2373 103.605 14.12 103.92 14.888C104.24 15.6507 104.717 16.2507 105.352 16.688C105.987 17.12 106.776 17.336 107.72 17.336ZM120.886 18V13.504C120.886 12.96 120.83 12.4747 120.718 12.048C120.611 11.6213 120.446 11.2587 120.222 10.96C120.003 10.6613 119.726 10.4347 119.39 10.28C119.059 10.1253 118.667 10.048 118.214 10.048C117.744 10.048 117.336 10.1307 116.99 10.296C116.648 10.456 116.366 10.6827 116.142 10.976C115.923 11.2693 115.758 11.6187 115.646 12.024C115.539 12.424 115.486 12.8613 115.486 13.336L114.758 13.248C114.758 12.3147 114.915 11.5467 115.23 10.944C115.55 10.336 115.979 9.888 116.518 9.6C117.056 9.30667 117.662 9.16 118.334 9.16C118.808 9.16 119.232 9.22933 119.606 9.368C119.984 9.50667 120.312 9.704 120.59 9.96C120.867 10.2107 121.096 10.5093 121.278 10.856C121.459 11.1973 121.592 11.5733 121.678 11.984C121.768 12.3947 121.814 12.824 121.814 13.272V18H120.886ZM114.558 18V9.36H115.398V11.304H115.486V18H114.558ZM124.046 18V6.24H124.966V18H124.046ZM127.53 7.616V6.44H128.45V7.616H127.53ZM127.53 18V9.36H128.45V18H127.53ZM137.182 18V13.504C137.182 12.96 137.126 12.4747 137.014 12.048C136.908 11.6213 136.742 11.2587 136.518 10.96C136.3 10.6613 136.022 10.4347 135.686 10.28C135.356 10.1253 134.964 10.048 134.51 10.048C134.041 10.048 133.633 10.1307 133.286 10.296C132.945 10.456 132.662 10.6827 132.438 10.976C132.22 11.2693 132.054 11.6187 131.942 12.024C131.836 12.424 131.782 12.8613 131.782 13.336L131.054 13.248C131.054 12.3147 131.212 11.5467 131.526 10.944C131.846 10.336 132.276 9.888 132.814 9.6C133.353 9.30667 133.958 9.16 134.63 9.16C135.105 9.16 135.529 9.22933 135.902 9.368C136.281 9.50667 136.609 9.704 136.886 9.96C137.164 10.2107 137.393 10.5093 137.574 10.856C137.756 11.1973 137.889 11.5733 137.974 11.984C138.065 12.3947 138.11 12.824 138.11 13.272V18H137.182ZM130.854 18V9.36H131.694V11.304H131.782V18H130.854ZM143.711 18.24C142.885 18.24 142.17 18.056 141.567 17.688C140.965 17.3147 140.498 16.7893 140.167 16.112C139.837 15.4293 139.671 14.624 139.671 13.696C139.671 12.752 139.834 11.9387 140.159 11.256C140.49 10.568 140.954 10.04 141.551 9.672C142.154 9.304 142.869 9.12 143.695 9.12C144.533 9.12 145.247 9.312 145.839 9.696C146.437 10.0747 146.89 10.624 147.199 11.344C147.514 12.064 147.663 12.9307 147.647 13.944H146.687V13.624C146.661 12.44 146.394 11.5387 145.887 10.92C145.381 10.3013 144.655 9.992 143.711 9.992C142.735 9.992 141.981 10.3147 141.447 10.96C140.919 11.6 140.655 12.5067 140.655 13.68C140.655 14.8427 140.919 15.744 141.447 16.384C141.981 17.024 142.73 17.344 143.695 17.344C144.362 17.344 144.943 17.1893 145.439 16.88C145.941 16.5653 146.338 16.1173 146.631 15.536L147.463 15.904C147.117 16.6507 146.615 17.2267 145.959 17.632C145.303 18.0373 144.554 18.24 143.711 18.24ZM140.303 13.944V13.112H147.127V13.944H140.303Z" fill="#6CB1F8"/>
</svg>
