<svg width="50" height="50" viewBox="0 0 50 50" fill="none" xmlns="http://www.w3.org/2000/svg">
<path d="M2.76263 31.065L14.2735 20.2133L18.7793 24.7192L7.2318 35.6058C7.08263 35.745 6.8868 35.8333 6.66763 35.8333C6.43763 35.8333 6.2293 35.74 6.07846 35.5892L2.74513 32.2558C2.59346 32.105 2.50096 31.8967 2.50096 31.6667C2.50096 31.4292 2.60263 31.2175 2.76263 31.065Z" fill="url(#paint0_linear_2526_21191)"/>
<path d="M20.3877 14.4475L31.9352 3.56001C32.0843 3.42168 32.2802 3.33334 32.4993 3.33334C32.7293 3.33334 32.9377 3.42668 33.0885 3.57751L36.4218 6.91084C36.5735 7.06168 36.666 7.27001 36.666 7.50001C36.666 7.73751 36.5643 7.94918 36.4043 8.10168L24.8935 18.9533L20.3877 14.4475Z" fill="url(#paint1_linear_2526_21191)"/>
<path d="M18.5684 16.1633L23.0742 20.6692L20.5984 23.0033L16.0926 18.4975L18.5684 16.1633Z" fill="#FFBB7E"/>
<path d="M23.0083 24.1667H25V46.6667H13.3333C12.4133 46.6667 11.6667 45.92 11.6667 45V34.86L23.0083 24.1667Z" fill="url(#paint2_linear_2526_21191)"/>
<path d="M11.6673 11.6667C11.6673 6.66668 12.5007 3.33334 16.6673 3.33334C18.969 3.33334 20.834 5.19834 20.834 7.50001C20.834 8.65084 20.3673 9.69251 19.6132 10.4458L10.4465 19.6125C9.69315 20.3667 8.65148 20.8333 7.50065 20.8333C5.19899 20.8333 3.33398 18.9683 3.33398 16.6667C3.33398 12.5 6.66732 11.6667 11.6673 11.6667Z" fill="#FFBB7E"/>
<path d="M30.834 24.1667H27.5007V46.6667H30.834V24.1667Z" fill="#FFBB7E"/>
<path d="M46.666 24.1667V45C46.666 45.92 45.9193 46.6667 44.9993 46.6667H33.3327V24.1667H46.666Z" fill="url(#paint3_linear_2526_21191)"/>
<defs>
<linearGradient id="paint0_linear_2526_21191" x1="10.6401" y1="20.2133" x2="10.6401" y2="35.8333" gradientUnits="userSpaceOnUse">
<stop stop-color="#F77A84"/>
<stop offset="1" stop-color="#E35056"/>
</linearGradient>
<linearGradient id="paint1_linear_2526_21191" x1="28.5268" y1="3.33334" x2="28.5268" y2="18.9533" gradientUnits="userSpaceOnUse">
<stop stop-color="#F77A84"/>
<stop offset="1" stop-color="#E35056"/>
</linearGradient>
<linearGradient id="paint2_linear_2526_21191" x1="18.3333" y1="24.1667" x2="18.3333" y2="46.6667" gradientUnits="userSpaceOnUse">
<stop stop-color="#F77A84"/>
<stop offset="1" stop-color="#E35056"/>
</linearGradient>
<linearGradient id="paint3_linear_2526_21191" x1="39.9993" y1="24.1667" x2="39.9993" y2="46.6667" gradientUnits="userSpaceOnUse">
<stop stop-color="#F77A84"/>
<stop offset="1" stop-color="#E35056"/>
</linearGradient>
</defs>
</svg>
