<svg width="27" height="23" viewBox="0 0 27 23" fill="none" xmlns="http://www.w3.org/2000/svg">
<path fill-rule="evenodd" clip-rule="evenodd" d="M24.5455 0H2.45455C1.10455 0 0 1.10455 0 2.45455V19.6364C0 20.9864 1.10455 22.0909 2.45455 22.0909H24.5455C25.8955 22.0909 27 20.9864 27 19.6364V2.45455C27 1.10455 25.8955 0 24.5455 0ZM24.5455 19.6364H2.45455V2.45455H24.5455V19.6364ZM8.47935 4.9091L7.36365 6.0248L9.59505 8.2562L7.9215 9.92976H12.3843V5.46695L10.7108 7.1405L8.47935 4.9091ZM8.47935 17.1818L7.36365 16.0661L9.59505 13.8347L7.9215 12.1612H12.3843V16.624L10.7108 14.9504L8.47935 17.1818ZM19.6363 16.0661L17.4049 13.8347L19.0785 12.1612H14.6157V16.624L16.2892 14.9504L18.5206 17.1818L19.6363 16.0661ZM18.5206 4.9091L19.6363 6.0248L17.4049 8.2562L19.0785 9.92976H14.6157V5.46695L16.2892 7.1405L18.5206 4.9091Z" fill="white"/>
</svg>
