<svg width="22" height="23" viewBox="0 0 22 23" fill="none" xmlns="http://www.w3.org/2000/svg">
<path d="M19.5556 10.8947H17.4778C17.4778 11.7905 17.2822 12.6258 16.9522 13.3763L18.4556 14.8653C19.14 13.6789 19.5556 12.3353 19.5556 10.8947V10.8947ZM14.6422 11.1005C14.6422 11.0279 14.6667 10.9674 14.6667 10.8947V3.63158C14.6667 1.62211 13.0289 0 11 0C8.97111 0 7.33333 1.62211 7.33333 3.63158V3.84947L14.6422 11.1005ZM1.55222 1.21053L0 2.74789L7.34556 10.0232V10.8947C7.34556 12.9042 8.97111 14.5263 11 14.5263C11.2689 14.5263 11.5378 14.49 11.7944 14.4295L13.8233 16.4389C12.9556 16.8384 11.99 17.0684 11 17.0684C7.62667 17.0684 4.52222 14.5263 4.52222 10.8947H2.44444C2.44444 15.0226 5.76889 18.4363 9.77778 19.0295V23H12.2222V19.0295C13.3344 18.8721 14.3856 18.4847 15.3267 17.94L20.4478 23L22 21.4626L1.55222 1.21053Z" fill="white"/>
</svg>
