<svg width="30" height="30" viewBox="0 0 30 30" fill="none" xmlns="http://www.w3.org/2000/svg">
<g clip-path="url(#clip0_2663_25555)">
<path d="M15 30C23.2843 30 30 23.2843 30 15C30 6.71573 23.2843 0 15 0C6.71573 0 0 6.71573 0 15C0 23.2843 6.71573 30 15 30Z" fill="#FFBB7E"/>
<path d="M26.1788 4.99836L4.9874 26.1673C5.25031 26.4032 5.52148 26.63 5.80062 26.8471L26.858 5.81264C26.6411 5.53314 26.4144 5.26162 26.1788 4.99836ZM23.4901 2.63281L2.58594 23.4201C3.06254 24.1215 3.59709 24.7803 4.18262 25.3897L25.4471 4.23676C24.8418 3.64924 24.1873 3.11234 23.4901 2.63281Z" fill="#FFDDB6"/>
<path d="M15.002 25.4004C20.7459 25.4004 25.4023 20.744 25.4023 15C25.4023 9.25602 20.7459 4.59961 15.002 4.59961C9.25798 4.59961 4.60156 9.25602 4.60156 15C4.60156 20.744 9.25798 25.4004 15.002 25.4004Z" fill="#FFA048"/>
<path d="M5.52324 15.9227C5.52324 10.1788 10.1796 5.52247 15.9235 5.52247C18.5628 5.52247 20.9721 6.5062 22.8059 8.12626C20.9001 5.96421 18.1105 4.59985 15.0018 4.59985C9.25789 4.59985 4.60156 9.25618 4.60156 15.0001C4.60156 18.1046 5.96229 20.8909 8.11936 22.7965C6.50381 20.9637 5.52324 18.5579 5.52324 15.9227Z" fill="#FF9534"/>
<path d="M23.5717 9.10067C23.3697 8.80794 23.1531 8.52604 22.923 8.25604L8.25391 22.9096C8.52355 23.14 8.80516 23.3567 9.0976 23.559L23.5717 9.10067Z" fill="#FFCA7B"/>
<path d="M20.1506 5.95923L5.9375 20.0928C6.35727 20.8387 6.86604 21.5276 7.44998 22.145L22.1916 7.48073C21.5782 6.89433 20.8929 6.38251 20.1506 5.95923Z" fill="#FFCA7B"/>
<path d="M15.7995 10.037L16.737 11.9367C16.8669 12.1999 17.118 12.3823 17.4085 12.4245L19.5049 12.7291C20.2363 12.8354 20.5283 13.7343 19.9991 14.2501L18.4821 15.7288C18.2719 15.9336 18.176 16.2288 18.2256 16.5181L18.5837 18.606C18.7087 19.3345 17.9441 19.89 17.2899 19.5461L15.4149 18.5603C15.1551 18.4237 14.8447 18.4237 14.5849 18.5603L12.7099 19.5461C12.0557 19.89 11.2911 19.3345 11.4161 18.606L11.7742 16.5181C11.8238 16.2288 11.7279 15.9337 11.5177 15.7288L10.0007 14.2501C9.47146 13.7342 9.76355 12.8354 10.4949 12.7291L12.5913 12.4245C12.8818 12.3823 13.1329 12.1999 13.2628 11.9367L14.2003 10.037C14.5273 9.37429 15.4724 9.37429 15.7995 10.037Z" fill="#FF7A00"/>
</g>
<defs>
<clipPath id="clip0_2663_25555">
<rect width="30" height="30" fill="white"/>
</clipPath>
</defs>
</svg>
