<svg width="80" height="80" viewBox="0 0 80 80" fill="none" xmlns="http://www.w3.org/2000/svg">
<g filter="url(#filter0_d_115_230)">
<path d="M40 56C51.0457 56 60 47.0457 60 36C60 24.9543 51.0457 16 40 16C28.9543 16 20 24.9543 20 36C20 47.0457 28.9543 56 40 56Z" fill="#FEFEFE"/>
</g>
<path fill-rule="evenodd" clip-rule="evenodd" d="M58.6683 40.3042C58.1667 42.4003 57.3548 44.3824 56.2451 46.1249L51.895 37.6357L58.6683 40.3042Z" fill="#C32B23"/>
<path fill-rule="evenodd" clip-rule="evenodd" d="M41.2793 16.8965C41.4576 16.9073 41.6377 16.9199 41.82 16.9344L41.8674 18.0458L41.2793 16.8965Z" fill="#E84145"/>
<path fill-rule="evenodd" clip-rule="evenodd" d="M33.1126 28.5218L26.7897 30.1094L25.8882 27.2693L34.937 17.5249C36.3194 17.1426 37.696 16.9248 39.0764 16.8691L33.1126 28.5218Z" fill="#E84145"/>
<path fill-rule="evenodd" clip-rule="evenodd" d="M24.9087 24.2027C27.5701 20.8392 31.1184 18.549 34.9369 17.5264L25.8867 27.2711L24.9087 24.2027Z" fill="#A52621"/>
<path fill-rule="evenodd" clip-rule="evenodd" d="M21.253 39.9162L24.4305 37.58L23.3699 36.945L28.1857 34.5126L27.2826 31.667L20.8512 35.7387C20.8391 37.3665 20.9987 38.6807 21.253 39.9162Z" fill="#E94D51"/>
<path fill-rule="evenodd" clip-rule="evenodd" d="M28.6809 36.0688L29.3623 35.8494L32.1251 30.4512L27.666 33.1519L28.6809 36.0688Z" fill="#E94A45"/>
<path fill-rule="evenodd" clip-rule="evenodd" d="M32.1213 30.4575L27.7426 33.1136L27.2832 31.6663L32.16 28.7273L33.1275 28.4912L32.1213 30.4575Z" fill="#932B1F"/>
<path fill-rule="evenodd" clip-rule="evenodd" d="M32.1604 28.7275L27.2836 31.6665L26.5566 29.3761L32.1604 28.7275Z" fill="#E63C28"/>
<path fill-rule="evenodd" clip-rule="evenodd" d="M27.4489 39.5878L25.6396 38.4316L27.969 38.5716L27.4489 39.5878Z" fill="#E94A45"/>
<path fill-rule="evenodd" clip-rule="evenodd" d="M28.8975 36.7555L28.7222 36.2031L29.2402 36.0859L28.8975 36.7555Z" fill="#A92C21"/>
<path fill-rule="evenodd" clip-rule="evenodd" d="M56.6468 41.7531L41.8205 16.9346L41.2812 16.8994L54.0182 41.7859L56.6468 41.7531L56.6814 41.3592L56.6468 41.7531Z" fill="#E63B26"/>
<path fill-rule="evenodd" clip-rule="evenodd" d="M41.8223 16.9346L50.4432 31.3656L57.6885 28.6136C55.0273 22.3341 49.0939 17.6268 41.8223 16.9346Z" fill="#E94D51"/>
<path fill-rule="evenodd" clip-rule="evenodd" d="M50.4419 31.3663L56.6472 41.7538L57.6872 28.6143L50.4419 31.3663Z" fill="#E94A45"/>
<path fill-rule="evenodd" clip-rule="evenodd" d="M54.5365 38.221L54.1113 39.0895L56.647 41.7542L56.9827 37.5127L54.5365 38.221Z" fill="#A92C21"/>
<path fill-rule="evenodd" clip-rule="evenodd" d="M50.4419 31.3663L51.919 33.8385L57.3719 32.5984L57.6872 28.6143L50.4419 31.3663Z" fill="#BD2922"/>
<path fill-rule="evenodd" clip-rule="evenodd" d="M56.6467 41.7532L56.7571 40.3593L58.7769 39.8682L55.3235 44.3366L54.0181 41.786L56.6467 41.7532Z" fill="#E74036"/>
<path fill-rule="evenodd" clip-rule="evenodd" d="M44.9678 24.1021L45.7452 23.5039L47.0169 25.6324L46.1456 26.4031L44.9678 24.1021Z" fill="#E53524"/>
<path fill-rule="evenodd" clip-rule="evenodd" d="M57.6867 28.6143L56.8862 38.7296L58.9693 38.6693C59.4339 35.0442 58.9872 31.7783 57.6867 28.6143Z" fill="#E94A45"/>
<path fill-rule="evenodd" clip-rule="evenodd" d="M27.3581 31.6209L20.8506 35.7385C20.9225 31.2712 22.4259 27.3317 24.9083 24.2012L27.3581 31.6209Z" fill="#A52621"/>
<path fill-rule="evenodd" clip-rule="evenodd" d="M21.2534 39.9163C21.513 41.1664 21.8541 42.2043 22.3457 43.4168L25.9916 42.4347L27.4956 39.4959L24.431 37.5801L21.2534 39.9163Z" fill="#CA2E23"/>
<path fill-rule="evenodd" clip-rule="evenodd" d="M22.0449 42.6545C22.1675 42.995 22.2431 43.1582 22.3452 43.417L25.9911 42.4348L27.1404 40.189L26.9282 40.1172L22.0449 42.6545Z" fill="#EA524D"/>
<path fill-rule="evenodd" clip-rule="evenodd" d="M41.8223 16.9346L45.7467 23.5039L50.4053 19.92C47.9124 18.3023 44.9895 17.2416 41.8223 16.9346Z" fill="#E73B34"/>
<path fill-rule="evenodd" clip-rule="evenodd" d="M23.9582 46.4082C23.352 45.4782 22.8165 44.4804 22.3462 43.4167L25.992 42.4346L23.9582 46.4082Z" fill="#E53524"/>
<path fill-rule="evenodd" clip-rule="evenodd" d="M56.7568 40.3595L56.8859 38.7292L58.9689 38.6689C58.9024 39.2268 58.7949 39.7474 58.6672 40.3045L56.7568 40.3595Z" fill="#C32B23"/>
<path fill-rule="evenodd" clip-rule="evenodd" d="M25.638 38.4316L23.3691 36.9451L28.185 34.5127L28.8968 36.7558L27.9674 38.5716L25.638 38.4316Z" fill="#CA2E23"/>
<path fill-rule="evenodd" clip-rule="evenodd" d="M23.2637 36.0658L22.1238 36.2891L20.8506 35.7389L23.0559 34.3428L23.2637 36.0658Z" fill="#CA2E23"/>
<path fill-rule="evenodd" clip-rule="evenodd" d="M41.4901 30.5858L36.4844 35.3772L40.1655 27.8613L41.4901 30.5858Z" fill="#E84145"/>
<path fill-rule="evenodd" clip-rule="evenodd" d="M42.4268 39.7183L42.5322 35.6497L43.6983 35.1289L45.9299 39.7183H42.4268Z" fill="#CC2D23"/>
<path fill-rule="evenodd" clip-rule="evenodd" d="M36.4844 35.3774L41.4901 30.5859L42.4652 32.5914L42.7058 39.718H34.3584L36.4844 35.3774Z" fill="#A92F21"/>
<path fill-rule="evenodd" clip-rule="evenodd" d="M42.6451 37.4399L38.2744 38.976L42.6088 36.7988L42.6451 37.4399Z" fill="#E94D51"/>
<path fill-rule="evenodd" clip-rule="evenodd" d="M42.5687 35.6374L43.6999 35.1301L42.4658 32.5918L42.5687 35.6374Z" fill="#E94D51"/>
<path fill-rule="evenodd" clip-rule="evenodd" d="M28.7231 36.2038L28.6807 36.0699L29.3621 35.8506L29.2411 36.0867L28.7231 36.2038Z" fill="#E42925"/>
<path fill-rule="evenodd" clip-rule="evenodd" d="M25.8105 38.4414L27.5081 39.4731L27.1436 40.185L26.9296 40.1167L25.8105 38.4414Z" fill="#A92C21"/>
<path fill-rule="evenodd" clip-rule="evenodd" d="M23.9508 46.4255C23.3447 45.4953 22.7887 44.4668 22.3462 43.4167L25.992 42.4346L23.9508 46.4255Z" fill="#CB2F23"/>
<path fill-rule="evenodd" clip-rule="evenodd" d="M25.4367 25.8488L25.0294 24.5654L23.9377 26.0849L25.2191 25.1634L23.5068 27.3617L25.4367 25.8488Z" fill="#E84145"/>
<path fill-rule="evenodd" clip-rule="evenodd" d="M51.2803 32.7715L52.4404 34.7133L57.2234 34.4643L57.4861 31.1436L56.9615 32.4671L55.9622 31.7524L51.2803 32.7715Z" fill="#E63B26"/>
<path fill-rule="evenodd" clip-rule="evenodd" d="M52.4419 34.7139L54.5373 38.2217L52.4747 36.1601L52.4419 34.7139Z" fill="#932B1F"/>
<path fill-rule="evenodd" clip-rule="evenodd" d="M56.6485 41.7531L41.8223 16.9346L42.2795 18.8298L42.278 18.8432L44.9728 24.1089L45.4602 23.7243L56.6832 41.3592L56.6485 41.7531Z" fill="#C32B23"/>
<path fill-rule="evenodd" clip-rule="evenodd" d="M39.0985 55.135L33.2896 46.0312H42.2822L42.0322 55.0479L39.0985 55.135Z" fill="#BC2F22"/>
<path fill-rule="evenodd" clip-rule="evenodd" d="M51.5368 51.2588C48.8846 53.2744 45.6619 54.6169 42.0308 55.0479L42.2643 46.0312H48.9431L51.5368 51.2588Z" fill="#CC2D23"/>
<path fill-rule="evenodd" clip-rule="evenodd" d="M39.0916 55.1285C35.1899 54.8849 31.6144 53.6066 28.6704 51.4174L31.2959 46.0312H33.3417L39.0916 55.1285Z" fill="#E52C33"/>
<path fill-rule="evenodd" clip-rule="evenodd" d="M42.0304 55.0479C40.995 55.1495 40.088 55.1666 39.0967 55.135L40.6724 46.7754L41.8182 46.0312H42.6788L42.0304 55.0479Z" fill="#A22B21"/>
<path fill-rule="evenodd" clip-rule="evenodd" d="M33.5352 47.5182L33.9147 47.0771L37.1141 47.6539L33.5352 47.5182Z" fill="#EA5452"/>
<path fill-rule="evenodd" clip-rule="evenodd" d="M39.8797 55.111L39.0979 55.1344L35.6021 51.1152L36.763 49.3145L39.8797 55.111Z" fill="#A22B21"/>
<path fill-rule="evenodd" clip-rule="evenodd" d="M46.0039 47.4204L49.5974 47.3489L48.9627 46.0694L48.7977 46.0312H46.2745L46.0039 47.4204Z" fill="#A22B21"/>
<path fill-rule="evenodd" clip-rule="evenodd" d="M57.2258 34.4639L56.9351 38.1391L57.7608 37.2491L57.2258 34.4639Z" fill="#E63B26"/>
<defs>
<filter id="filter0_d_115_230" x="0" y="0" width="80" height="80" filterUnits="userSpaceOnUse" color-interpolation-filters="sRGB">
<feFlood flood-opacity="0" result="BackgroundImageFix"/>
<feColorMatrix in="SourceAlpha" type="matrix" values="0 0 0 0 0 0 0 0 0 0 0 0 0 0 0 0 0 0 127 0" result="hardAlpha"/>
<feOffset dy="4"/>
<feGaussianBlur stdDeviation="10"/>
<feColorMatrix type="matrix" values="0 0 0 0 0.127018 0 0 0 0 0.127018 0 0 0 0 0.127018 0 0 0 0.5 0"/>
<feBlend mode="normal" in2="BackgroundImageFix" result="effect1_dropShadow_115_230"/>
<feBlend mode="normal" in="SourceGraphic" in2="effect1_dropShadow_115_230" result="shape"/>
</filter>
</defs>
</svg>
