<svg width="36" height="36" viewBox="0 0 36 36" fill="none" xmlns="http://www.w3.org/2000/svg">
<path d="M34.0125 22.3668L25.7247 14.5536L22.4805 17.7978L30.7947 25.6362C30.9021 25.7364 31.0431 25.8 31.2009 25.8C31.3665 25.8 31.5165 25.7328 31.6251 25.6242L34.0251 23.2242C34.1343 23.1156 34.2009 22.9656 34.2009 22.8C34.2009 22.629 34.1277 22.4766 34.0125 22.3668Z" fill="#3D4058"/>
<path d="M34.0125 22.3668L25.7247 14.5536L22.4805 17.7978L30.7947 25.6362C30.9021 25.7364 31.0431 25.8 31.2009 25.8C31.3665 25.8 31.5165 25.7328 31.6251 25.6242L34.0251 23.2242C34.1343 23.1156 34.2009 22.9656 34.2009 22.8C34.2009 22.629 34.1277 22.4766 34.0125 22.3668Z" fill="url(#paint0_linear_2678_24070)"/>
<path d="M34.0125 22.3668L25.7247 14.5536L22.4805 17.7978L30.7947 25.6362C30.9021 25.7364 31.0431 25.8 31.2009 25.8C31.3665 25.8 31.5165 25.7328 31.6251 25.6242L34.0251 23.2242C34.1343 23.1156 34.2009 22.9656 34.2009 22.8C34.2009 22.629 34.1277 22.4766 34.0125 22.3668Z" fill="#3D4058"/>
<path d="M34.0125 22.3668L25.7247 14.5536L22.4805 17.7978L30.7947 25.6362C30.9021 25.7364 31.0431 25.8 31.2009 25.8C31.3665 25.8 31.5165 25.7328 31.6251 25.6242L34.0251 23.2242C34.1343 23.1156 34.2009 22.9656 34.2009 22.8C34.2009 22.629 34.1277 22.4766 34.0125 22.3668Z" fill="url(#paint1_linear_2678_24070)"/>
<path d="M21.322 10.4022L13.0078 2.56319C12.9004 2.46359 12.7594 2.39999 12.6016 2.39999C12.436 2.39999 12.286 2.46719 12.1774 2.57579L9.77736 4.97579C9.66816 5.08439 9.60156 5.23439 9.60156 5.39999C9.60156 5.57099 9.67476 5.72339 9.78996 5.83319L18.0778 13.6464L21.322 10.4022Z" fill="#3D4058"/>
<path d="M21.322 10.4022L13.0078 2.56319C12.9004 2.46359 12.7594 2.39999 12.6016 2.39999C12.436 2.39999 12.286 2.46719 12.1774 2.57579L9.77736 4.97579C9.66816 5.08439 9.60156 5.23439 9.60156 5.39999C9.60156 5.57099 9.67476 5.72339 9.78996 5.83319L18.0778 13.6464L21.322 10.4022Z" fill="url(#paint2_linear_2678_24070)"/>
<path d="M21.322 10.4022L13.0078 2.56319C12.9004 2.46359 12.7594 2.39999 12.6016 2.39999C12.436 2.39999 12.286 2.46719 12.1774 2.57579L9.77736 4.97579C9.66816 5.08439 9.60156 5.23439 9.60156 5.39999C9.60156 5.57099 9.67476 5.72339 9.78996 5.83319L18.0778 13.6464L21.322 10.4022Z" fill="#3D4058"/>
<path d="M21.322 10.4022L13.0078 2.56319C12.9004 2.46359 12.7594 2.39999 12.6016 2.39999C12.436 2.39999 12.286 2.46719 12.1774 2.57579L9.77736 4.97579C9.66816 5.08439 9.60156 5.23439 9.60156 5.39999C9.60156 5.57099 9.67476 5.72339 9.78996 5.83319L18.0778 13.6464L21.322 10.4022Z" fill="url(#paint3_linear_2678_24070)"/>
<path d="M22.6309 11.6376L19.3867 14.8818L21.1693 16.5624L24.4135 13.3182L22.6309 11.6376Z" fill="#FFBB7E"/>
<path d="M19.434 17.4H18V33.6H26.4C27.0624 33.6 27.6 33.0624 27.6 32.4V25.0992L19.434 17.4Z" fill="#3D4058"/>
<path d="M19.434 17.4H18V33.6H26.4C27.0624 33.6 27.6 33.0624 27.6 32.4V25.0992L19.434 17.4Z" fill="url(#paint4_linear_2678_24070)"/>
<path d="M19.434 17.4H18V33.6H26.4C27.0624 33.6 27.6 33.0624 27.6 32.4V25.0992L19.434 17.4Z" fill="#3D4058"/>
<path d="M19.434 17.4H18V33.6H26.4C27.0624 33.6 27.6 33.0624 27.6 32.4V25.0992L19.434 17.4Z" fill="url(#paint5_linear_2678_24070)"/>
<path d="M27.6 8.39999C27.6 4.79999 27 2.39999 24 2.39999C22.3428 2.39999 21 3.74279 21 5.39999C21 6.22859 21.336 6.97859 21.879 7.52099L28.479 14.121C29.0214 14.664 29.7714 15 30.6 15C32.2572 15 33.6 13.6572 33.6 12C33.6 8.99999 31.2 8.39999 27.6 8.39999Z" fill="#FFBB7E"/>
<path d="M13.8008 17.4H16.2008V33.6H13.8008V17.4Z" fill="#FFBB7E"/>
<path d="M2.39844 17.4V32.4C2.39844 33.0624 2.93604 33.6 3.59844 33.6H11.9984V17.4H2.39844Z" fill="#3D4058"/>
<path d="M2.39844 17.4V32.4C2.39844 33.0624 2.93604 33.6 3.59844 33.6H11.9984V17.4H2.39844Z" fill="url(#paint6_linear_2678_24070)"/>
<path d="M2.39844 17.4V32.4C2.39844 33.0624 2.93604 33.6 3.59844 33.6H11.9984V17.4H2.39844Z" fill="#3D4058"/>
<path d="M2.39844 17.4V32.4C2.39844 33.0624 2.93604 33.6 3.59844 33.6H11.9984V17.4H2.39844Z" fill="url(#paint7_linear_2678_24070)"/>
<defs>
<linearGradient id="paint0_linear_2678_24070" x1="28.3407" y1="14.5536" x2="28.3407" y2="25.8" gradientUnits="userSpaceOnUse">
<stop stop-color="#3D4058"/>
<stop offset="1" stop-color="#595B70"/>
</linearGradient>
<linearGradient id="paint1_linear_2678_24070" x1="28.3407" y1="14.5536" x2="28.3407" y2="25.8" gradientUnits="userSpaceOnUse">
<stop stop-color="#F77A84"/>
<stop offset="1" stop-color="#E35056"/>
</linearGradient>
<linearGradient id="paint2_linear_2678_24070" x1="15.4618" y1="2.39999" x2="15.4618" y2="13.6464" gradientUnits="userSpaceOnUse">
<stop stop-color="#3D4058"/>
<stop offset="1" stop-color="#595B70"/>
</linearGradient>
<linearGradient id="paint3_linear_2678_24070" x1="15.4618" y1="2.39999" x2="15.4618" y2="13.6464" gradientUnits="userSpaceOnUse">
<stop stop-color="#F77A84"/>
<stop offset="1" stop-color="#E35056"/>
</linearGradient>
<linearGradient id="paint4_linear_2678_24070" x1="22.8" y1="17.4" x2="22.8" y2="33.6" gradientUnits="userSpaceOnUse">
<stop stop-color="#3D4058"/>
<stop offset="1" stop-color="#595B70"/>
</linearGradient>
<linearGradient id="paint5_linear_2678_24070" x1="22.8" y1="17.4" x2="22.8" y2="33.6" gradientUnits="userSpaceOnUse">
<stop stop-color="#F77A84"/>
<stop offset="1" stop-color="#E35056"/>
</linearGradient>
<linearGradient id="paint6_linear_2678_24070" x1="7.19844" y1="17.4" x2="7.19844" y2="33.6" gradientUnits="userSpaceOnUse">
<stop stop-color="#3D4058"/>
<stop offset="1" stop-color="#595B70"/>
</linearGradient>
<linearGradient id="paint7_linear_2678_24070" x1="7.19844" y1="17.4" x2="7.19844" y2="33.6" gradientUnits="userSpaceOnUse">
<stop stop-color="#F77A84"/>
<stop offset="1" stop-color="#E35056"/>
</linearGradient>
</defs>
</svg>
